<svg width="20" height="23" viewBox="0 0 20 23" fill="none" xmlns="http://www.w3.org/2000/svg">
<g opacity="0.552293">
<path d="M13.3036 13.4766C13.9059 13.4764 14.4843 13.2397 14.9156 12.8167C14.9673 13.0936 14.9956 13.3745 15 13.6562C15 16.4349 12.7614 18.6875 10 18.6875C7.23858 18.6875 5 16.4349 5 13.6562C5.00445 13.3745 5.03267 13.0936 5.08438 12.8167C5.52386 13.247 6.11525 13.4841 6.72844 13.4756C7.34163 13.4672 7.92638 13.214 8.35402 12.7717C8.78504 13.2213 9.37918 13.4753 10 13.4753C10.6208 13.4753 11.215 13.2213 11.646 12.7717C12.0813 13.2222 12.6791 13.4764 13.3036 13.4766Z" fill="black"/>
<path fill-rule="evenodd" clip-rule="evenodd" d="M2.85714 0H17.1429C18.7208 0 20 1.28718 20 2.875V21.5625C20 22.3564 19.3604 23 18.5714 23H1.42857C0.639593 23 0 22.3564 0 21.5625V2.875C0 1.28718 1.27919 0 2.85714 0ZM9.28571 3.95312C9.28571 3.35769 8.80602 2.875 8.21429 2.875C7.62255 2.875 7.14286 3.35769 7.14286 3.95312C7.14286 4.54856 7.62255 5.03125 8.21429 5.03125C8.80602 5.03125 9.28571 4.54856 9.28571 3.95312ZM2.85714 3.95312C2.85714 3.35769 3.33684 2.875 3.92857 2.875C4.52031 2.875 5 3.35769 5 3.95312C5 4.54856 4.52031 5.03125 3.92857 5.03125C3.33684 5.03125 2.85714 4.54856 2.85714 3.95312ZM3.57143 13.6562C3.57143 17.2288 6.4496 20.125 10 20.125C13.5504 20.125 16.4286 17.2288 16.4286 13.6562C16.4286 10.0837 13.5504 7.1875 10 7.1875C6.4496 7.1875 3.57143 10.0837 3.57143 13.6562Z" fill="black"/>
</g>
</svg>
