<svg width="14" height="18" viewBox="0 0 14 18" fill="none" xmlns="http://www.w3.org/2000/svg">
<g id="Share" opacity="0.9">
<path id="Shape" fill-rule="evenodd" clip-rule="evenodd" d="M7 0C6.7062 0 6.44303 0.125956 6.26577 0.324732L3.58307 2.90228C3.20564 3.26491 3.20564 3.85285 3.58307 4.21548C3.96049 4.57811 4.57242 4.57811 4.94984 4.21548L6.03355 3.17425V9.07143C6.03355 9.58426 6.46624 10 7 10C7.53376 10 7.96645 9.58426 7.96645 9.07143V3.17425L9.05016 4.21548C9.42758 4.57811 10.0395 4.57811 10.4169 4.21548C10.7944 3.85285 10.7944 3.26491 10.4169 2.90228L7.73423 0.324732C7.55697 0.125956 7.2938 0 7 0ZM14 8.14286C14 6.95939 13.1046 6 12 6C11.4477 6 11 6.47969 11 7.07143C11 7.66316 11.4477 8.14286 12 8.14286V15.8571H2V8.14286C2.55228 8.14286 3 7.66316 3 7.07143C3 6.47969 2.55228 6 2 6C0.89543 6 0 6.95939 0 8.14286V15.8571C0 17.0406 0.89543 18 2 18H12C13.1046 18 14 17.0406 14 15.8571V8.14286Z" fill="black"/>
</g>
</svg>
