<svg width="29" height="23" viewBox="0 0 29 23" fill="none" xmlns="http://www.w3.org/2000/svg">
<g opacity="0.552293">
<path d="M26.0992 14.375V20.125C26.0992 21.7128 24.8008 23 23.1992 23H20.2186C21.8523 21.5028 22.2965 19.1179 21.3097 17.1411C20.3229 15.1642 18.1408 14.0677 15.9492 14.4473V7.1875C15.9492 6.39359 16.5984 5.75 17.3992 5.75C22.2023 5.75 26.0992 9.61328 26.0992 14.375Z" fill="black"/>
<path fill-rule="evenodd" clip-rule="evenodd" d="M23.2 0C26.4018 0.0034661 28.9965 2.5758 29 5.75C29 8.1367 27.5119 10.1573 25.4185 11.0225C25.4219 11.0308 25.4248 11.0394 25.4278 11.0481C25.4307 11.0567 25.4337 11.0654 25.4371 11.0737C25.0468 10.1476 24.4963 9.29624 23.8104 8.55807C25.2543 8.24372 26.2286 6.90292 26.072 5.44559C25.9155 3.98825 24.6783 2.88089 23.2 2.875H13.6667C12.3007 2.87996 11.1214 3.82464 10.8297 5.1476L7.59392 20.125H7.975C8.37541 20.125 8.7 20.4468 8.7 20.8438V22.2812C8.7 22.6782 8.37541 23 7.975 23H0.725C0.324594 23 0 22.6782 0 22.2812C0 21.0904 0.973781 20.125 2.175 20.125H4.62731L7.99494 4.54564C8.56406 1.91188 10.9493 0 13.6667 0H23.2ZM16.675 15.8125C14.673 15.8125 13.05 17.4215 13.05 19.4062C13.05 21.391 14.673 23 16.675 23C18.677 23 20.3 21.391 20.3 19.4062C20.3 18.4531 19.9181 17.539 19.2383 16.8651C18.5584 16.1911 17.6364 15.8125 16.675 15.8125ZM16.675 20.125C16.2746 20.125 15.95 19.8032 15.95 19.4062C15.95 19.0093 16.2746 18.6875 16.675 18.6875C17.0754 18.6875 17.4 19.0093 17.4 19.4062C17.4 19.8032 17.0754 20.125 16.675 20.125Z" fill="black"/>
</g>
</svg>
