<svg width="20" height="27" viewBox="0 0 20 27" fill="none" xmlns="http://www.w3.org/2000/svg">
<path fill-rule="evenodd" clip-rule="evenodd" d="M12.272 8.33337C13.9962 8.33331 15.4358 9.64807 15.5918 11.3651L16.6527 23.0318C16.7375 23.9645 16.4259 24.8898 15.7944 25.5813C15.1628 26.2728 14.2695 26.6667 13.333 26.6667H3.33295C2.39652 26.6666 1.50333 26.2726 0.87188 25.5811C0.240429 24.8896 -0.0710362 23.9644 0.0136812 23.0318L1.0741 11.3651C1.23008 9.64807 2.66974 8.33331 4.39389 8.33337H12.272ZM5.20795 18.6068C5.20795 20.2954 6.60795 21.6667 8.33295 21.6667C10.058 21.6667 11.458 20.2954 11.458 18.6079C11.458 17.3058 9.60014 14.6771 8.74962 13.5417C8.65142 13.4104 8.49715 13.3331 8.33321 13.3329C8.16928 13.3326 8.01481 13.4096 7.91629 13.5407C7.06733 14.6761 5.20795 17.3047 5.20795 18.6068Z" fill="#2B89EE"/>
<path fill-rule="evenodd" clip-rule="evenodd" d="M17.5 2.64271L19.7557 4.89896C19.9121 5.05524 19.9999 5.26723 19.9999 5.48828C19.9999 5.70933 19.9121 5.92132 19.7557 6.0776L18.5776 7.25573C18.4213 7.41205 18.2093 7.49987 17.9883 7.49987C17.7672 7.49987 17.5552 7.41205 17.399 7.25573L15.1432 5H11.6667V6.66667H5V1.66667C5 0.746192 5.74619 0 6.66667 0H10C10.442 0 10.866 0.175595 11.1785 0.488155C11.4911 0.800716 11.6667 1.22464 11.6667 1.66667H15.1432C16.0272 1.66666 16.8749 2.01775 17.5 2.64271ZM5.20833 18.6078C5.20833 17.3057 7.06615 14.6771 7.91667 13.5417C8.01503 13.4105 8.1694 13.3333 8.33333 13.3333C8.49727 13.3333 8.65164 13.4105 8.75 13.5417C9.59896 14.6771 11.4583 17.3057 11.4583 18.6078C11.4583 20.2964 10.0583 21.6677 8.33333 21.6677C6.60833 21.6677 5.20833 20.2964 5.20833 18.6078Z" fill="#C0DBFF"/>
</svg>
