<svg width="30" height="30" viewBox="0 0 30 30" fill="none" xmlns="http://www.w3.org/2000/svg">
<path fill-rule="evenodd" clip-rule="evenodd" d="M24.1587 4.33826C24.2856 4.41022 24.367 4.54193 24.3747 4.68762C24.3668 4.83325 24.2854 4.96487 24.1587 5.03699L21.25 6.24986L20.0369 9.15863C19.971 9.29132 19.8356 9.37525 19.6875 9.37525C19.5393 9.37525 19.404 9.29132 19.3381 9.15863L18.125 6.24986L15.2161 5.03699C15.0837 4.97089 15 4.83561 15 4.68762C15 4.53963 15.0837 4.40436 15.2161 4.33826L18.125 3.12527L19.3381 0.21662C19.404 0.0839238 19.5393 0 19.6875 0C19.8356 0 19.971 0.0839238 20.0369 0.21662L21.25 3.12527L24.1587 4.33826ZM27.5002 11.8753L29.8273 12.8454C29.933 12.8984 29.9998 13.0066 29.9998 13.1249C29.9998 13.2432 29.933 13.3514 29.8273 13.4044L27.5002 14.3747L26.5299 16.7013C26.4773 16.8075 26.369 16.8747 26.2504 16.8747C26.1319 16.8747 26.0236 16.8075 25.971 16.7013L25.0005 14.3747L22.6736 13.4044C22.5679 13.3514 22.5011 13.2432 22.5011 13.1249C22.5011 13.0066 22.5679 12.8984 22.6736 12.8454L25.0005 11.8753L25.971 9.5485C26.0237 9.44236 26.1319 9.37524 26.2504 9.37524C26.3689 9.37524 26.4772 9.44236 26.5299 9.5485L27.5002 11.8753Z" fill="#FFEDB2"/>
<path d="M21.3454 15.6617L15.2048 14.7655L12.4563 9.18758C11.9647 8.19156 10.541 8.17966 10.0429 9.18758L7.29448 14.7655L1.15392 15.6617C0.0525199 15.8201 -0.393351 17.1796 0.409583 17.9586L4.8573 22.2943L3.80259 28.4224C3.61491 29.5301 4.78039 30.3622 5.75362 29.8404L11.2496 26.9466L16.7457 29.8404C17.1988 30.0784 17.7478 30.0386 18.1618 29.7377C18.5759 29.4367 18.7832 28.9269 18.6967 28.4224L17.6484 22.2943L22.0952 17.9586C22.8926 17.1796 22.4468 15.8201 21.3454 15.6617Z" fill="#FFDF77"/>
</svg>
