<svg width="20" height="16" viewBox="0 0 20 16" fill="none" xmlns="http://www.w3.org/2000/svg">
<g opacity="0.552293">
<path fill-rule="evenodd" clip-rule="evenodd" d="M19.2709 0.188438L19.8916 0.969688C20.0631 1.18563 20.0272 1.49969 19.8119 1.67094L12.5469 7.22719L13.6122 8.56844C13.7709 8.76844 13.6641 9.06563 13.4141 9.11844L11.5766 9.5075L8.86625 6.09563L9.65781 4.39094C9.76562 4.15906 10.0797 4.12156 10.2388 4.32188L11.3056 5.66469L18.5706 0.108438C18.7859 -0.0631242 19.0994 -0.0271867 19.2709 0.188438ZM10.725 10.1859L8.01469 6.77406C8.01469 6.77406 4.78562 6.56094 2.91156 8.05344C2.22781 8.59813 1.65656 9.7975 1.20531 11.0994L3.09281 10.4091C3.27344 10.3428 3.42469 10.5591 3.30063 10.7059L0.34375 14.2113C0.11875 15.2203 0 15.9434 0 15.9434C0 15.9434 6.45813 16.3703 8.33219 14.8772C10.2063 13.3847 10.725 10.1859 10.725 10.1859Z" fill="black"/>
</g>
</svg>
