<svg width="16" height="18" viewBox="0 0 16 18" fill="none" xmlns="http://www.w3.org/2000/svg">
<path fill-rule="evenodd" clip-rule="evenodd" d="M8 0C12.4185 0 16 3.52574 16 7.875C16 12.2243 12.4185 15.75 8 15.75C7.61637 15.75 7.23979 15.7206 6.87086 15.6679L6.5045 15.6077L3 18V14.0169C1.1725 12.5736 0 10.3607 0 7.875C0 3.52574 3.58201 0 8 0ZM8 1C4.13069 1 1 4.08169 1 7.875C1 9.8911 1.8906 11.7621 3.4089 13.0589L3.61981 13.2322L4 13.5325V16.106L6.2814 14.5492L6.687 14.6245C7.13399 14.7074 7.57013 14.75 8 14.75C11.8696 14.75 15 11.6685 15 7.875C15 4.0815 11.8696 1 8 1ZM12 6.75C12 6.4395 11.776 6.1875 11.5 6.1875H4.5C4.224 6.1875 4 6.4395 4 6.75C4 7.0605 4.224 7.3125 4.5 7.3125H11.5C11.776 7.3125 12 7.0605 12 6.75ZM11 10.125C11 9.8145 10.776 9.5625 10.5 9.5625H5.5C5.224 9.5625 5 9.8145 5 10.125C5 10.4355 5.224 10.6875 5.5 10.6875H10.5C10.776 10.6875 11 10.4355 11 10.125Z" fill="#22252B"/>
</svg>
