<svg width="10" height="10" viewBox="0 0 10 10" fill="none" xmlns="http://www.w3.org/2000/svg">
<path opacity="0.3" d="M9.78298 4.53183C9.97982 4.33161 10.0493 4.03775 9.9644 3.76458C9.8793 3.49141 9.65763 3.29641 9.38531 3.25503L6.96403 2.88781C6.86091 2.87213 6.77181 2.80462 6.72575 2.70702L5.64326 0.417172C5.52172 0.159888 5.27503 0 5.0001 0C4.72537 0 4.47868 0.159888 4.35714 0.417172L3.27445 2.70723C3.22839 2.80483 3.13909 2.87234 3.03597 2.88802L0.614689 3.25524C0.342566 3.29641 0.120702 3.49162 0.0356008 3.76479C-0.0493001 4.03796 0.0201825 4.33181 0.217016 4.53204L1.9689 6.31443C2.04359 6.3905 2.07783 6.50002 2.06021 6.60703L1.64692 9.12386C1.61027 9.3454 1.66594 9.56088 1.8033 9.7308C2.01676 9.99561 2.3894 10.0763 2.68735 9.91285L4.85273 8.72445C4.94323 8.67492 5.05717 8.67533 5.14748 8.72445L7.31305 9.91285C7.41837 9.97074 7.53071 10 7.64665 10C7.8583 10 8.05893 9.90177 8.1969 9.7308C8.33446 9.56088 8.38993 9.34498 8.35328 9.12386L7.93979 6.60703C7.92217 6.49981 7.95641 6.3905 8.0311 6.31443L9.78298 4.53183Z" fill="black"/>
<path d="M6.96403 2.88781C6.86091 2.87213 6.77181 2.80462 6.72575 2.70702L5.64326 0.417172C5.52172 0.159888 5.27503 0 5.0001 0C4.72537 0 4.47868 0.159888 4.35714 0.417172L3.27445 2.70723C3.22839 2.80483 3.13909 2.87234 3.03597 2.88802L0.614689 3.25524C0.342566 3.29641 0.120702 3.49162 0.0356008 3.76479C-0.0493001 4.03796 0.0201825 4.33181 0.217016 4.53204L1.9689 6.31443C2.04359 6.3905 2.07783 6.50002 2.06021 6.60703L1.64692 9.12386C1.61027 9.3454 1.66594 9.56088 1.8033 9.7308C2.01676 9.99561 2.3894 10.0763 2.68735 9.91285L4.85273 8.72445C4.94323 8.67492 5.05717 8.67533 5.14748 8.72445L7.31305 9.91285C7.41837 9.97074 7.53071 10 7.64665 10C7.8583 10 8.05893 9.90177 8.1969 9.7308C8.33446 9.56088 8.38993 9.34498 8.35328 9.12386L7.93979 6.60703C7.92217 6.49981 7.95641 6.3905 8.0311 6.31443V3.04658L6.96403 2.88781Z" fill="black"/>
</svg>
