<svg width="17" height="20" viewBox="0 0 17 20" fill="none" xmlns="http://www.w3.org/2000/svg">
<path fill-rule="evenodd" clip-rule="evenodd" d="M16.4094 12.9395C15.3532 11.9107 14.5455 10.834 14.5455 7.18454C14.5455 4.1086 12.1507 1.6 9.10396 1.29662V0.618357C9.10396 0.276715 8.83347 0 8.49951 0C8.16556 0 7.89507 0.276715 7.89507 0.618357V1.297C4.84829 1.60039 2.45356 4.1086 2.45356 7.18454C2.45356 10.8336 1.64549 11.9107 0.589223 12.9395C0.0614679 13.4535 -0.105132 14.2307 0.164223 14.9194C0.439246 15.6228 1.10111 16.0773 1.85062 16.0773H15.1484C15.8979 16.0773 16.5598 15.6224 16.8348 14.919C17.1042 14.2303 16.9372 13.4535 16.4094 12.9395ZM8.49951 18.5507C7.83236 18.5507 7.29062 17.995 7.29062 17.3129H6.08173C6.08173 18.6775 7.16671 19.7874 8.49951 19.7874C9.83231 19.7874 10.9173 18.6775 10.9173 17.3129H9.7084C9.7084 17.995 9.16667 18.5507 8.49951 18.5507ZM1.85062 14.8406H15.1484C15.6837 14.8406 15.9561 14.2056 15.576 13.835C14.2512 12.5449 13.3366 11.1014 13.3366 7.18454C13.3366 4.58048 11.1727 2.47343 8.49951 2.47343C5.82598 2.47343 3.66245 4.58087 3.66245 7.18493C3.66245 11.1169 2.73991 12.5527 1.42298 13.8354C1.04445 14.2041 1.31305 14.8406 1.85062 14.8406Z" fill="black"/>
</svg>
